<mxfile host="65bd71144e">
    <diagram id="VEUmjhEjD9BDzZWcCdEK" name="top">
        <mxGraphModel dx="6945" dy="2565" grid="1" gridSize="10" guides="1" tooltips="1" connect="1" arrows="1" fold="1" page="1" pageScale="1" pageWidth="850" pageHeight="1100" math="0" shadow="0">
            <root>
                <mxCell id="0"/>
                <mxCell id="1" parent="0"/>
                <mxCell id="37" value="" style="endArrow=blockThin;html=1;strokeWidth=4;rounded=1;startArrow=none;startFill=0;endFill=1;strokeColor=#d79b00;fillColor=#ffe6cc;" parent="1" edge="1">
                    <mxGeometry width="50" height="50" relative="1" as="geometry">
                        <mxPoint x="710" y="130" as="sourcePoint"/>
                        <mxPoint x="709" y="-90" as="targetPoint"/>
                    </mxGeometry>
                </mxCell>
                <mxCell id="33" value="" style="endArrow=blockThin;html=1;strokeWidth=4;rounded=1;startArrow=none;startFill=0;endFill=1;strokeColor=#007FFF;exitX=0.75;exitY=1;exitDx=0;exitDy=0;" parent="1" edge="1">
                    <mxGeometry width="50" height="50" relative="1" as="geometry">
                        <mxPoint x="760" y="550" as="sourcePoint"/>
                        <mxPoint x="760" y="590" as="targetPoint"/>
                    </mxGeometry>
                </mxCell>
                <mxCell id="32" value="" style="endArrow=blockThin;html=1;strokeWidth=4;rounded=1;startArrow=none;startFill=0;endFill=1;strokeColor=#007FFF;exitX=0.75;exitY=1;exitDx=0;exitDy=0;" parent="1" edge="1">
                    <mxGeometry width="50" height="50" relative="1" as="geometry">
                        <mxPoint x="780" y="390" as="sourcePoint"/>
                        <mxPoint x="780" y="590" as="targetPoint"/>
                    </mxGeometry>
                </mxCell>
                <mxCell id="31" value="" style="endArrow=blockThin;html=1;strokeWidth=4;rounded=1;startArrow=none;startFill=0;endFill=1;strokeColor=#007FFF;exitX=0.75;exitY=1;exitDx=0;exitDy=0;" parent="1" edge="1">
                    <mxGeometry width="50" height="50" relative="1" as="geometry">
                        <mxPoint x="800" y="230" as="sourcePoint"/>
                        <mxPoint x="800" y="590" as="targetPoint"/>
                    </mxGeometry>
                </mxCell>
                <mxCell id="30" value="" style="endArrow=blockThin;html=1;strokeWidth=4;rounded=1;startArrow=none;startFill=0;endFill=1;strokeColor=#007FFF;exitX=0.761;exitY=1.016;exitDx=0;exitDy=0;exitPerimeter=0;" parent="1" source="20" edge="1">
                    <mxGeometry width="50" height="50" relative="1" as="geometry">
                        <mxPoint x="800" y="99.99999999999991" as="sourcePoint"/>
                        <mxPoint x="820" y="590" as="targetPoint"/>
                    </mxGeometry>
                </mxCell>
                <mxCell id="2" value="Fetch" style="rounded=0;whiteSpace=wrap;html=1;fontSize=35;strokeWidth=4;" parent="1" vertex="1">
                    <mxGeometry x="80" y="290" width="200" height="100" as="geometry"/>
                </mxCell>
                <mxCell id="12" value="" style="endArrow=none;html=1;strokeWidth=4;rounded=1;startArrow=none;startFill=0;" parent="1" edge="1">
                    <mxGeometry width="50" height="50" relative="1" as="geometry">
                        <mxPoint x="560" y="334.23" as="sourcePoint"/>
                        <mxPoint x="620" y="334" as="targetPoint"/>
                    </mxGeometry>
                </mxCell>
                <mxCell id="14" value="Decode&lt;br&gt;Issue" style="rounded=0;whiteSpace=wrap;html=1;fontSize=35;strokeWidth=4;" parent="1" vertex="1">
                    <mxGeometry x="350" y="290" width="210" height="100" as="geometry"/>
                </mxCell>
                <mxCell id="15" value="Reg File" style="rounded=0;whiteSpace=wrap;html=1;fontSize=35;strokeWidth=4;" parent="1" vertex="1">
                    <mxGeometry x="350" y="440" width="210" height="110" as="geometry"/>
                </mxCell>
                <mxCell id="17" value="LSU" style="rounded=0;whiteSpace=wrap;html=1;fontSize=35;strokeWidth=4;" parent="1" vertex="1">
                    <mxGeometry x="660" y="450" width="210" height="100" as="geometry"/>
                </mxCell>
                <mxCell id="18" value="ALU&lt;br&gt;M" style="rounded=0;whiteSpace=wrap;html=1;fontSize=35;strokeWidth=4;" parent="1" vertex="1">
                    <mxGeometry x="660" y="290" width="210" height="100" as="geometry"/>
                </mxCell>
                <mxCell id="19" value="ALU&lt;br&gt;I" style="rounded=0;whiteSpace=wrap;html=1;fontSize=35;strokeWidth=4;" parent="1" vertex="1">
                    <mxGeometry x="660" y="130" width="210" height="100" as="geometry"/>
                </mxCell>
                <mxCell id="20" value="System&lt;br&gt;&lt;font style=&quot;font-size: 16px;&quot;&gt;CSR/Exception/Interrupt&lt;/font&gt;" style="rounded=0;whiteSpace=wrap;html=1;fontSize=35;strokeWidth=4;" parent="1" vertex="1">
                    <mxGeometry x="660" y="-30" width="210" height="100" as="geometry"/>
                </mxCell>
                <mxCell id="22" value="" style="endArrow=blockThin;html=1;strokeWidth=4;rounded=1;startArrow=none;startFill=0;endFill=1;" parent="1" edge="1">
                    <mxGeometry width="50" height="50" relative="1" as="geometry">
                        <mxPoint x="620" y="334.75" as="sourcePoint"/>
                        <mxPoint x="660" y="334.75" as="targetPoint"/>
                    </mxGeometry>
                </mxCell>
                <mxCell id="24" value="" style="endArrow=blockThin;html=1;strokeWidth=4;rounded=1;startArrow=none;startFill=0;endFill=1;" parent="1" edge="1">
                    <mxGeometry width="50" height="50" relative="1" as="geometry">
                        <mxPoint x="620" y="499.76" as="sourcePoint"/>
                        <mxPoint x="660" y="499.76" as="targetPoint"/>
                    </mxGeometry>
                </mxCell>
                <mxCell id="25" value="" style="endArrow=blockThin;html=1;strokeWidth=4;rounded=1;startArrow=none;startFill=0;endFill=1;" parent="1" edge="1">
                    <mxGeometry width="50" height="50" relative="1" as="geometry">
                        <mxPoint x="620" y="180" as="sourcePoint"/>
                        <mxPoint x="660" y="180" as="targetPoint"/>
                    </mxGeometry>
                </mxCell>
                <mxCell id="26" value="" style="endArrow=blockThin;html=1;strokeWidth=4;rounded=1;startArrow=none;startFill=0;endFill=1;" parent="1" edge="1">
                    <mxGeometry width="50" height="50" relative="1" as="geometry">
                        <mxPoint x="620" y="19.599999999999998" as="sourcePoint"/>
                        <mxPoint x="660" y="19.599999999999998" as="targetPoint"/>
                    </mxGeometry>
                </mxCell>
                <mxCell id="27" value="" style="endArrow=none;html=1;strokeWidth=4;rounded=1;startArrow=none;startFill=0;endFill=0;" parent="1" edge="1">
                    <mxGeometry width="50" height="50" relative="1" as="geometry">
                        <mxPoint x="620" y="20" as="sourcePoint"/>
                        <mxPoint x="620" y="500" as="targetPoint"/>
                    </mxGeometry>
                </mxCell>
                <mxCell id="34" value="" style="endArrow=blockThin;html=1;strokeWidth=6;rounded=1;startArrow=none;startFill=0;endFill=1;strokeColor=#007FFF;entryX=0.5;entryY=1;entryDx=0;entryDy=0;" parent="1" target="15" edge="1">
                    <mxGeometry width="50" height="50" relative="1" as="geometry">
                        <mxPoint x="455" y="590" as="sourcePoint"/>
                        <mxPoint x="770" y="600" as="targetPoint"/>
                    </mxGeometry>
                </mxCell>
                <mxCell id="35" value="" style="endArrow=none;html=1;strokeWidth=11;rounded=1;startArrow=none;startFill=0;endFill=0;strokeColor=#007FFF;" parent="1" edge="1">
                    <mxGeometry width="50" height="50" relative="1" as="geometry">
                        <mxPoint x="830" y="590" as="sourcePoint"/>
                        <mxPoint x="450" y="590" as="targetPoint"/>
                    </mxGeometry>
                </mxCell>
                <mxCell id="36" value="" style="endArrow=blockThin;html=1;strokeWidth=6;rounded=1;startArrow=none;startFill=0;endFill=1;strokeColor=#007FFF;entryX=0.5;entryY=1;entryDx=0;entryDy=0;" parent="1" target="14" edge="1">
                    <mxGeometry width="50" height="50" relative="1" as="geometry">
                        <mxPoint x="454.66" y="440" as="sourcePoint"/>
                        <mxPoint x="454.66" y="400" as="targetPoint"/>
                    </mxGeometry>
                </mxCell>
                <mxCell id="38" value="" style="endArrow=blockThin;html=1;strokeWidth=4;rounded=1;startArrow=none;startFill=0;endFill=1;strokeColor=#d79b00;exitX=0.333;exitY=0;exitDx=0;exitDy=0;exitPerimeter=0;fillColor=#ffe6cc;" parent="1" source="20" edge="1">
                    <mxGeometry width="50" height="50" relative="1" as="geometry">
                        <mxPoint x="730" y="-40" as="sourcePoint"/>
                        <mxPoint x="730" y="-90" as="targetPoint"/>
                    </mxGeometry>
                </mxCell>
                <mxCell id="39" value="" style="endArrow=none;html=1;strokeWidth=11;rounded=1;startArrow=none;startFill=0;endFill=0;strokeColor=#d79b00;fillColor=#ffe6cc;" parent="1" edge="1">
                    <mxGeometry width="50" height="50" relative="1" as="geometry">
                        <mxPoint x="740" y="-90" as="sourcePoint"/>
                        <mxPoint x="170" y="-90" as="targetPoint"/>
                    </mxGeometry>
                </mxCell>
                <mxCell id="40" value="" style="endArrow=blockThin;html=1;strokeWidth=6;rounded=1;startArrow=none;startFill=0;endFill=1;strokeColor=#d79b00;entryX=0.5;entryY=0;entryDx=0;entryDy=0;fillColor=#ffe6cc;" parent="1" target="2" edge="1">
                    <mxGeometry width="50" height="50" relative="1" as="geometry">
                        <mxPoint x="180" y="-90" as="sourcePoint"/>
                        <mxPoint x="465" y="560" as="targetPoint"/>
                    </mxGeometry>
                </mxCell>
                <mxCell id="41" value="Bus" style="rounded=0;whiteSpace=wrap;html=1;fontSize=35;strokeWidth=4;" parent="1" vertex="1">
                    <mxGeometry x="80" y="670" width="790" height="100" as="geometry"/>
                </mxCell>
                <mxCell id="43" value="" style="endArrow=blockThin;html=1;strokeWidth=4;rounded=1;startArrow=block;startFill=1;endFill=1;strokeColor=#b85450;exitX=0.75;exitY=1;exitDx=0;exitDy=0;fillColor=#f8cecc;" parent="1" edge="1">
                    <mxGeometry width="50" height="50" relative="1" as="geometry">
                        <mxPoint x="720" y="550" as="sourcePoint"/>
                        <mxPoint x="720" y="670" as="targetPoint"/>
                    </mxGeometry>
                </mxCell>
                <mxCell id="44" value="" style="endArrow=none;html=1;strokeWidth=4;rounded=1;startArrow=block;startFill=1;endFill=0;strokeColor=#b85450;exitX=0.75;exitY=1;exitDx=0;exitDy=0;fillColor=#f8cecc;entryX=0.125;entryY=-0.026;entryDx=0;entryDy=0;entryPerimeter=0;" parent="1" target="41" edge="1">
                    <mxGeometry width="50" height="50" relative="1" as="geometry">
                        <mxPoint x="179.40999999999997" y="390" as="sourcePoint"/>
                        <mxPoint x="179" y="650" as="targetPoint"/>
                    </mxGeometry>
                </mxCell>
                <mxCell id="45" value="ITCM" style="rounded=0;whiteSpace=wrap;html=1;fontSize=35;strokeWidth=4;" parent="1" vertex="1">
                    <mxGeometry x="80" y="830" width="200" height="100" as="geometry"/>
                </mxCell>
                <mxCell id="46" value="DTCM" style="rounded=0;whiteSpace=wrap;html=1;fontSize=35;strokeWidth=4;" parent="1" vertex="1">
                    <mxGeometry x="355" y="830" width="200" height="100" as="geometry"/>
                </mxCell>
                <mxCell id="47" value="External Mem" style="rounded=0;whiteSpace=wrap;html=1;fontSize=35;strokeWidth=4;" parent="1" vertex="1">
                    <mxGeometry x="665" y="830" width="200" height="100" as="geometry"/>
                </mxCell>
                <mxCell id="48" value="" style="endArrow=block;html=1;strokeWidth=4;rounded=1;startArrow=block;startFill=1;endFill=1;strokeColor=#b85450;exitX=0.127;exitY=1.018;exitDx=0;exitDy=0;fillColor=#f8cecc;entryX=0.5;entryY=0;entryDx=0;entryDy=0;exitPerimeter=0;" parent="1" source="41" target="45" edge="1">
                    <mxGeometry width="50" height="50" relative="1" as="geometry">
                        <mxPoint x="179.90999999999985" y="770" as="sourcePoint"/>
                        <mxPoint x="179.5" y="830" as="targetPoint"/>
                    </mxGeometry>
                </mxCell>
                <mxCell id="49" value="" style="endArrow=block;html=1;strokeWidth=4;rounded=1;startArrow=block;startFill=1;endFill=1;strokeColor=#b85450;exitX=0.127;exitY=1.018;exitDx=0;exitDy=0;fillColor=#f8cecc;entryX=0.5;entryY=0;entryDx=0;entryDy=0;exitPerimeter=0;" parent="1" edge="1">
                    <mxGeometry width="50" height="50" relative="1" as="geometry">
                        <mxPoint x="450.3299999999999" y="770.0000000000002" as="sourcePoint"/>
                        <mxPoint x="450" y="828.2" as="targetPoint"/>
                    </mxGeometry>
                </mxCell>
                <mxCell id="50" value="" style="endArrow=block;html=1;strokeWidth=4;rounded=1;startArrow=block;startFill=1;endFill=1;strokeColor=#b85450;exitX=0.127;exitY=1.018;exitDx=0;exitDy=0;fillColor=#f8cecc;entryX=0.5;entryY=0;entryDx=0;entryDy=0;exitPerimeter=0;" parent="1" edge="1">
                    <mxGeometry width="50" height="50" relative="1" as="geometry">
                        <mxPoint x="764.8299999999999" y="771.8000000000002" as="sourcePoint"/>
                        <mxPoint x="764.5" y="830" as="targetPoint"/>
                    </mxGeometry>
                </mxCell>
                <mxCell id="52" value="" style="endArrow=blockThin;html=1;strokeWidth=4;rounded=1;startArrow=none;startFill=0;endFill=1;entryX=0;entryY=0.5;entryDx=0;entryDy=0;" parent="1" target="14" edge="1">
                    <mxGeometry width="50" height="50" relative="1" as="geometry">
                        <mxPoint x="280" y="339.47" as="sourcePoint"/>
                        <mxPoint x="320" y="339.47" as="targetPoint"/>
                    </mxGeometry>
                </mxCell>
                <mxCell id="53" value="" style="endArrow=none;html=1;strokeWidth=4;rounded=1;startArrow=block;startFill=1;endFill=0;strokeColor=#b85450;fillColor=#f8cecc;" parent="1" edge="1">
                    <mxGeometry width="50" height="50" relative="1" as="geometry">
                        <mxPoint x="-200" y="240" as="sourcePoint"/>
                        <mxPoint x="-150" y="240" as="targetPoint"/>
                    </mxGeometry>
                </mxCell>
                <mxCell id="54" value="&lt;span style=&quot;color: rgb(0, 0, 0); font-family: Helvetica; font-size: 23px; font-style: normal; font-variant-ligatures: normal; font-variant-caps: normal; font-weight: 400; letter-spacing: normal; orphans: 2; text-indent: 0px; text-transform: none; widows: 2; word-spacing: 0px; -webkit-text-stroke-width: 0px; background-color: rgb(251, 251, 251); text-decoration-thickness: initial; text-decoration-style: initial; text-decoration-color: initial; float: none; display: inline !important;&quot;&gt;Memoy RW&lt;/span&gt;" style="text;whiteSpace=wrap;html=1;fontSize=23;align=left;" parent="1" vertex="1">
                    <mxGeometry x="-140" y="220" width="160" height="30" as="geometry"/>
                </mxCell>
                <mxCell id="55" value="" style="endArrow=none;html=1;strokeWidth=4;rounded=1;startArrow=block;startFill=1;endFill=0;strokeColor=#d79b00;fillColor=#ffe6cc;" parent="1" edge="1">
                    <mxGeometry width="50" height="50" relative="1" as="geometry">
                        <mxPoint x="-200" y="280" as="sourcePoint"/>
                        <mxPoint x="-150" y="280" as="targetPoint"/>
                    </mxGeometry>
                </mxCell>
                <mxCell id="56" value="&lt;span style=&quot;color: rgb(0, 0, 0); font-family: Helvetica; font-size: 23px; font-style: normal; font-variant-ligatures: normal; font-variant-caps: normal; font-weight: 400; letter-spacing: normal; orphans: 2; text-indent: 0px; text-transform: none; widows: 2; word-spacing: 0px; -webkit-text-stroke-width: 0px; background-color: rgb(251, 251, 251); text-decoration-thickness: initial; text-decoration-style: initial; text-decoration-color: initial; float: none; display: inline !important;&quot;&gt;PC Update&lt;/span&gt;" style="text;whiteSpace=wrap;html=1;fontSize=23;align=left;" parent="1" vertex="1">
                    <mxGeometry x="-140" y="260" width="160" height="30" as="geometry"/>
                </mxCell>
                <mxCell id="57" value="" style="endArrow=none;html=1;strokeWidth=4;rounded=1;startArrow=block;startFill=1;endFill=0;strokeColor=#000000;fillColor=#ffe6cc;" parent="1" edge="1">
                    <mxGeometry width="50" height="50" relative="1" as="geometry">
                        <mxPoint x="-200" y="200" as="sourcePoint"/>
                        <mxPoint x="-150" y="200" as="targetPoint"/>
                    </mxGeometry>
                </mxCell>
                <mxCell id="58" value="&lt;span style=&quot;color: rgb(0, 0, 0); font-family: Helvetica; font-size: 23px; font-style: normal; font-variant-ligatures: normal; font-variant-caps: normal; font-weight: 400; letter-spacing: normal; orphans: 2; text-indent: 0px; text-transform: none; widows: 2; word-spacing: 0px; -webkit-text-stroke-width: 0px; background-color: rgb(251, 251, 251); text-decoration-thickness: initial; text-decoration-style: initial; text-decoration-color: initial; float: none; display: inline !important;&quot;&gt;Instruction&lt;/span&gt;" style="text;whiteSpace=wrap;html=1;fontSize=23;align=left;" parent="1" vertex="1">
                    <mxGeometry x="-140" y="180" width="160" height="30" as="geometry"/>
                </mxCell>
                <mxCell id="59" value="" style="endArrow=none;html=1;strokeWidth=4;rounded=1;startArrow=block;startFill=1;endFill=0;strokeColor=#007FFF;fillColor=#0050ef;" parent="1" edge="1">
                    <mxGeometry width="50" height="50" relative="1" as="geometry">
                        <mxPoint x="-200" y="319.9999999999998" as="sourcePoint"/>
                        <mxPoint x="-150" y="319.9999999999998" as="targetPoint"/>
                    </mxGeometry>
                </mxCell>
                <mxCell id="60" value="&lt;span style=&quot;color: rgb(0, 0, 0); font-family: Helvetica; font-size: 23px; font-style: normal; font-variant-ligatures: normal; font-variant-caps: normal; font-weight: 400; letter-spacing: normal; orphans: 2; text-indent: 0px; text-transform: none; widows: 2; word-spacing: 0px; -webkit-text-stroke-width: 0px; background-color: rgb(251, 251, 251); text-decoration-thickness: initial; text-decoration-style: initial; text-decoration-color: initial; float: none; display: inline !important;&quot;&gt;Register Update&lt;/span&gt;" style="text;whiteSpace=wrap;html=1;fontSize=23;align=left;" parent="1" vertex="1">
                    <mxGeometry x="-140" y="300" width="180" height="30" as="geometry"/>
                </mxCell>
            </root>
        </mxGraphModel>
    </diagram>
    <diagram id="mvN3o7zct3P1Ckf3f-BY" name="fetch3">
        <mxGraphModel dx="979" dy="293" grid="1" gridSize="10" guides="1" tooltips="1" connect="1" arrows="1" fold="1" page="1" pageScale="1" pageWidth="850" pageHeight="1100" math="0" shadow="0">
            <root>
                <mxCell id="0"/>
                <mxCell id="1" parent="0"/>
                <mxCell id="gSoPkjkVUS_zeNttCN_w-1" value="ITCM" style="rounded=0;whiteSpace=wrap;html=1;" parent="1" vertex="1">
                    <mxGeometry x="160" y="180" width="120" height="60" as="geometry"/>
                </mxCell>
                <mxCell id="lgs2bfraHZdt9MKe75hh-2" value="" style="endArrow=classic;html=1;exitX=1;exitY=0.5;exitDx=0;exitDy=0;entryX=0;entryY=0.5;entryDx=0;entryDy=0;" parent="1" source="gSoPkjkVUS_zeNttCN_w-1" target="lgs2bfraHZdt9MKe75hh-4" edge="1">
                    <mxGeometry width="50" height="50" relative="1" as="geometry">
                        <mxPoint x="300" y="230" as="sourcePoint"/>
                        <mxPoint x="360" y="210" as="targetPoint"/>
                    </mxGeometry>
                </mxCell>
                <mxCell id="lgs2bfraHZdt9MKe75hh-4" value="Instruction&lt;br&gt;Buffer&lt;br&gt;=4" style="rounded=0;whiteSpace=wrap;html=1;" parent="1" vertex="1">
                    <mxGeometry x="400" y="180" width="120" height="60" as="geometry"/>
                </mxCell>
                <mxCell id="lgs2bfraHZdt9MKe75hh-5" value="Dispatch" style="rounded=0;whiteSpace=wrap;html=1;" parent="1" vertex="1">
                    <mxGeometry x="580" y="60" width="120" height="200" as="geometry"/>
                </mxCell>
                <mxCell id="lgs2bfraHZdt9MKe75hh-6" value="PC" style="rounded=0;whiteSpace=wrap;html=1;" parent="1" vertex="1">
                    <mxGeometry x="400" y="120" width="120" height="40" as="geometry"/>
                </mxCell>
                <mxCell id="lgs2bfraHZdt9MKe75hh-9" value="" style="endArrow=classic;html=1;entryX=0.5;entryY=0;entryDx=0;entryDy=0;" parent="1" target="gSoPkjkVUS_zeNttCN_w-1" edge="1">
                    <mxGeometry width="50" height="50" relative="1" as="geometry">
                        <mxPoint x="220" y="160" as="sourcePoint"/>
                        <mxPoint x="249.9999999999999" y="149.76" as="targetPoint"/>
                        <Array as="points">
                            <mxPoint x="220" y="170"/>
                        </Array>
                    </mxGeometry>
                </mxCell>
                <mxCell id="icyO3AZWwJTslGa9XHQ5-2" value="" style="edgeStyle=none;html=1;exitX=0.5;exitY=1;exitDx=0;exitDy=0;" edge="1" parent="1" target="gSoPkjkVUS_zeNttCN_w-1">
                    <mxGeometry relative="1" as="geometry">
                        <mxPoint x="220" y="160" as="sourcePoint"/>
                    </mxGeometry>
                </mxCell>
                <mxCell id="icyO3AZWwJTslGa9XHQ5-3" value="" style="endArrow=none;html=1;entryX=1;entryY=0.5;entryDx=0;entryDy=0;endFill=0;" edge="1" parent="1">
                    <mxGeometry width="50" height="50" relative="1" as="geometry">
                        <mxPoint x="540" y="80" as="sourcePoint"/>
                        <mxPoint x="220" y="80" as="targetPoint"/>
                    </mxGeometry>
                </mxCell>
                <mxCell id="icyO3AZWwJTslGa9XHQ5-6" value="" style="edgeStyle=none;html=1;" edge="1" parent="1">
                    <mxGeometry relative="1" as="geometry">
                        <mxPoint x="220" y="80" as="sourcePoint"/>
                        <mxPoint x="220" y="120" as="targetPoint"/>
                    </mxGeometry>
                </mxCell>
                <mxCell id="icyO3AZWwJTslGa9XHQ5-7" value="" style="edgeStyle=none;html=1;" edge="1" parent="1">
                    <mxGeometry relative="1" as="geometry">
                        <mxPoint x="459.65999999999997" y="80" as="sourcePoint"/>
                        <mxPoint x="459.65999999999997" y="120" as="targetPoint"/>
                    </mxGeometry>
                </mxCell>
                <mxCell id="icyO3AZWwJTslGa9XHQ5-8" value="Fetch PC" style="rounded=0;whiteSpace=wrap;html=1;" vertex="1" parent="1">
                    <mxGeometry x="160" y="120" width="120" height="40" as="geometry"/>
                </mxCell>
                <mxCell id="icyO3AZWwJTslGa9XHQ5-9" value="&lt;span style=&quot;color: rgb(0, 0, 0); font-family: Helvetica; font-size: 12px; font-style: normal; font-variant-ligatures: normal; font-variant-caps: normal; font-weight: 400; letter-spacing: normal; orphans: 2; text-align: center; text-indent: 0px; text-transform: none; widows: 2; word-spacing: 0px; -webkit-text-stroke-width: 0px; background-color: rgb(251, 251, 251); text-decoration-thickness: initial; text-decoration-style: initial; text-decoration-color: initial; float: none; display: inline !important;&quot;&gt;PC Update&lt;/span&gt;" style="text;whiteSpace=wrap;html=1;" vertex="1" parent="1">
                    <mxGeometry x="470" y="50" width="110" height="20" as="geometry"/>
                </mxCell>
                <mxCell id="icyO3AZWwJTslGa9XHQ5-10" value="" style="edgeStyle=none;html=1;entryX=0.004;entryY=0.168;entryDx=0;entryDy=0;entryPerimeter=0;" edge="1" parent="1" target="lgs2bfraHZdt9MKe75hh-4">
                    <mxGeometry relative="1" as="geometry">
                        <mxPoint x="360" y="160" as="sourcePoint"/>
                        <mxPoint x="469.65999999999985" y="130" as="targetPoint"/>
                    </mxGeometry>
                </mxCell>
                <mxCell id="icyO3AZWwJTslGa9XHQ5-12" value="" style="endArrow=none;html=1;endFill=0;" edge="1" parent="1">
                    <mxGeometry width="50" height="50" relative="1" as="geometry">
                        <mxPoint x="360" y="80" as="sourcePoint"/>
                        <mxPoint x="360" y="160" as="targetPoint"/>
                    </mxGeometry>
                </mxCell>
            </root>
        </mxGraphModel>
    </diagram>
</mxfile>